<?xml version="1.0" encoding="utf-8"?>
<!-- Generator: Adobe Illustrator 19.0.0, SVG Export Plug-In . SVG Version: 6.00 Build 0)  -->
<svg version="1.1" id="Layer_1" xmlns="http://www.w3.org/2000/svg" xmlns:xlink="http://www.w3.org/1999/xlink" x="0px" y="0px"
	 viewBox="0 0 72 72" style="enable-background:new 0 0 72 72;" xml:space="preserve">
<style type="text/css">
	.st0{fill:#26A3D8;}
</style>
<g>
	<path class="st0" d="M59.5,24.9l-2.4-2.4C56.8,22.2,56.4,22,56,22c-0.4,0-0.8,0.2-1.1,0.5L36,41.4L17.1,22.5
		C16.8,22.2,16.4,22,16,22c-0.4,0-0.8,0.2-1.1,0.5l-2.4,2.4C12.2,25.2,12,25.6,12,26s0.2,0.8,0.5,1.1l22.4,22.4
		c0.3,0.3,0.7,0.5,1.1,0.5s0.8-0.2,1.1-0.5l22.4-22.4c0.3-0.3,0.5-0.7,0.5-1.1S59.8,25.2,59.5,24.9z"/>
</g>
<g>
</g>
<g>
</g>
<g>
</g>
<g>
</g>
<g>
</g>
<g>
</g>
</svg>
