<?xml version="1.0" encoding="utf-8"?>
<!-- Generator: Adobe Illustrator 19.0.1, SVG Export Plug-In . SVG Version: 6.00 Build 0)  -->
<svg version="1.1" id="Layer_1" xmlns="http://www.w3.org/2000/svg" xmlns:xlink="http://www.w3.org/1999/xlink" x="0px" y="0px"
	 viewBox="-258 372 50 50" style="enable-background:new -258 372 50 50;" xml:space="preserve">
<style type="text/css">
	.st0{fill:#269DD2;}
</style>
<path class="st0" d="M-224.9,421l-6.1-10.8h-3.8l-6.3,10.8h-2.2l6.2-10.8h-11.3c-3.3,0-5.5-2.2-5.5-5.5v-29.9h-3.1V373h48v1.8h-3.1
	v29.9c0,3.3-2.2,5.5-5.5,5.5h-11.5l6.2,10.8H-224.9z M-252.2,375.4c0,1.9,0,29,0,29.3c0,2.2,1.5,3.7,3.7,3.7h30.8
	c2.2,0,3.7-1.5,3.7-3.7c0-0.3,0-26.2,0-29.3v-0.6h-38.2V375.4z M-223.7,402.5c-0.5,0-0.9-0.4-0.9-0.9v-18.5c0-0.5,0.4-0.9,0.9-0.9
	s0.9,0.4,0.9,0.9v18.5C-222.8,402.1-223.2,402.5-223.7,402.5z M-233,402.5c-0.5,0-0.9-0.4-0.9-0.9v-12.7c0-0.5,0.4-0.9,0.9-0.9
	s0.9,0.4,0.9,0.9v12.7C-232.1,402.1-232.5,402.5-233,402.5z M-242.2,402.5c-0.5,0-0.9-0.4-0.9-0.9v-6.2c0-0.5,0.4-0.9,0.9-0.9
	s0.9,0.4,0.9,0.9v6.2C-241.3,402.1-241.7,402.5-242.2,402.5z"/>
<g id="XMLID_6_">
</g>
<g id="XMLID_7_">
</g>
<g id="XMLID_8_">
</g>
<g id="XMLID_9_">
</g>
<g id="XMLID_10_">
</g>
<g id="XMLID_11_">
</g>
</svg>
