<?xml version="1.0" encoding="utf-8"?>
<!-- Generator: Adobe Illustrator 19.0.1, SVG Export Plug-In . SVG Version: 6.00 Build 0)  -->
<svg version="1.1" id="Layer_1" xmlns="http://www.w3.org/2000/svg" xmlns:xlink="http://www.w3.org/1999/xlink" x="0px" y="0px"
	 viewBox="-257.9 372.1 49.8 49.8" style="enable-background:new -257.9 372.1 49.8 49.8;" xml:space="preserve">
<style type="text/css">
	.st0{fill:#26A3D8;}
</style>
<g>
	<path class="st0" d="M-210,379.9h-13.4c-0.5-3.1-3.1-5.4-6.3-5.4h-6.8c-3.2,0-5.8,2.3-6.3,5.4H-256c-0.5,0-1,0.5-1,1v37.6
		c0,0.5,0.5,1,1,1h46c0.5,0,1-0.5,1-1v-37.6C-209,380.3-209.4,379.9-210,379.9L-210,379.9z M-236.4,376.5h6.8c2.1,0,3.8,1.5,4.3,3.4
		h-15.4C-240.2,378-238.5,376.5-236.4,376.5L-236.4,376.5z M-255,381.9h44v16.8h-18.7v-1c0-0.5-0.5-1-1-1h-4.5c-0.5,0-1,0.5-1,1v1
		H-255V381.9z M-234.3,399.7v-1h2.6v3.4h-2.6V399.7z M-210.8,417.5H-255v-16.8h18.8v2.5c0,0.5,0.5,1,1,1h4.5c0.5,0,1-0.5,1-1v-2.5
		h18.7v16.8H-210.8z"/>
</g>
</svg>
