<?xml version="1.0" encoding="utf-8"?>
<!-- Generator: Adobe Illustrator 19.0.0, SVG Export Plug-In . SVG Version: 6.00 Build 0)  -->
<svg version="1.1" id="Layer_1" xmlns="http://www.w3.org/2000/svg" xmlns:xlink="http://www.w3.org/1999/xlink" x="0px" y="0px"
	 viewBox="0 0 72 72" style="enable-background:new 0 0 72 72;" xml:space="preserve">
<style type="text/css">
	.st0{fill:#FFFFFF;}
</style>
<g>
	<g>
		<path class="st0" d="M48.5,27.6c-2.1-6.4-9.3-11.1-18-11.1C20.3,16.5,12,23.1,12,31.2c0,5.5,3.9,10.5,10,13.1v7.9
			c0,0.6,0.4,1.2,0.9,1.5c0.2,0.1,0.5,0.2,0.7,0.2c0.4,0,0.8-0.1,1.1-0.4l9.4-7.8c0.4-0.1,0.7-0.1,1.1-0.2c1.7,1.7,3.9,3,6.7,3.7
			c0.5,0.1,1,0.2,1.6,0.3l6.7,5.6c0.3,0.3,0.7,0.4,1.1,0.4c0.2,0,0.5-0.1,0.7-0.2c0.6-0.3,0.9-0.9,0.9-1.5v-5.5
			c4.4-2,7.3-5.7,7.3-9.8C60,33.1,55,28.5,48.5,27.6z M33.2,42.5c0,0-0.1,0-0.1,0.1c-0.3,0.1-0.5,0.1-0.7,0.3l-7,5.8v-5.5
			c0-0.7-0.4-1.3-1.1-1.6c-5.4-1.9-8.9-6-8.9-10.4c0-6.3,6.8-11.5,15.2-11.5c6.6,0,12.3,3.2,14.3,7.7c0.5,1,0.8,2.1,0.8,3.2
			c0,0.2,0.1,0.3,0.1,0.5c0,4.6-3.8,8.8-9.5,10.5c-0.3,0.1-0.6,0.2-0.9,0.3C34.7,42.3,33.9,42.4,33.2,42.5z M50.6,45.7
			c-0.7,0.2-1.1,0.9-1.1,1.6v3.1l-4.4-3.6c-0.2-0.2-0.5-0.3-0.8-0.4c-0.6-0.1-1.1-0.2-1.6-0.3c-1.4-0.4-2.6-0.9-3.7-1.6
			c6.2-2.5,10.2-7.5,10.2-13.2c0-0.1,0-0.1,0-0.2c4.4,1,7.6,4,7.6,7.5C56.7,41.6,54.3,44.4,50.6,45.7z"/>
		<path class="st0" d="M22.4,29.9h15.7c0.9,0,1.7-0.7,1.7-1.7s-0.7-1.7-1.7-1.7H22.4c-0.9,0-1.7,0.7-1.7,1.7S21.5,29.9,22.4,29.9z"
			/>
		<path class="st0" d="M32.7,32.5H22.4c-0.9,0-1.7,0.7-1.7,1.7c0,0.9,0.7,1.7,1.7,1.7h10.3c0.9,0,1.7-0.7,1.7-1.7
			C34.4,33.3,33.6,32.5,32.7,32.5z"/>
	</g>
</g>
<g>
</g>
<g>
</g>
<g>
</g>
<g>
</g>
<g>
</g>
<g>
</g>
</svg>
