<?xml version="1.0" encoding="utf-8"?>
<!-- Generator: Adobe Illustrator 19.0.0, SVG Export Plug-In . SVG Version: 6.00 Build 0)  -->
<svg version="1.1" id="Layer_1" xmlns="http://www.w3.org/2000/svg" xmlns:xlink="http://www.w3.org/1999/xlink" x="0px" y="0px"
	 viewBox="0 0 72 72" style="enable-background:new 0 0 72 72;" xml:space="preserve">
<style type="text/css">
	.st0{fill:#EBEBEB;}
	.st1{fill:#25A3D8;}
	.st2{fill-rule:evenodd;clip-rule:evenodd;fill:none;stroke:#25A3D8;stroke-width:3.7765;stroke-miterlimit:10;}
	.st3{fill:#26A3D8;}
</style>
<path id="XMLID_5_" class="st0" d="M36.1,2c18.8,0,34,15.2,34,34c0,18.8-15.2,34-34,34s-34-15.2-34-34C2.1,17.2,17.3,2,36.1,2
	 M36.1,0.1C16.3,0.1,0.2,16.2,0.2,36c0,19.8,16.1,35.9,35.9,35.9C55.9,71.9,72,55.8,72,36C72,16.2,55.9,0.1,36.1,0.1L36.1,0.1z"/>
<path id="XMLID_12_" class="st1" d="M72,36h-3.8c0-17.7-14.4-32.1-32.1-32.1V0.1C55.9,0.1,72,16.2,72,36z"/>
<path id="XMLID_3_" class="st2" d="M70.1,36c0,18.8-15.2,34-34,34"/>
<g id="XMLID_8_">
	<path id="XMLID_9_" class="st3" d="M43.5,44.8H28.6v-3.2l6.9-7.2c1.7-1.9,2.5-3.5,2.5-4.6c0-0.9-0.2-1.6-0.6-2.1s-1-0.7-1.7-0.7
		c-0.8,0-1.4,0.3-1.8,1s-0.7,1.4-0.7,2.4h-5c0-1.3,0.3-2.5,1-3.6s1.6-2,2.7-2.6s2.5-0.9,3.9-0.9c2.3,0,4.1,0.5,5.3,1.6
		c1.2,1.1,1.9,2.6,1.9,4.6c0,0.8-0.2,1.7-0.5,2.5s-0.8,1.6-1.5,2.5c-0.7,0.9-1.7,2-3.2,3.5L35.1,41h8.4V44.8z"/>
</g>
<g id="XMLID_1_">
</g>
<g id="XMLID_2_">
</g>
<g id="XMLID_4_">
</g>
<g id="XMLID_7_">
</g>
<g id="XMLID_14_">
</g>
<g id="XMLID_15_">
</g>
</svg>
