<?xml version="1.0" encoding="utf-8"?>
<!-- Generator: Adobe Illustrator 19.0.0, SVG Export Plug-In . SVG Version: 6.00 Build 0)  -->
<svg version="1.1" id="Layer_1" xmlns="http://www.w3.org/2000/svg" xmlns:xlink="http://www.w3.org/1999/xlink" x="0px" y="0px"
	 viewBox="0 0 72 72" style="enable-background:new 0 0 72 72;" xml:space="preserve">
<style type="text/css">
	.st0{fill:#EBEBEB;}
	.st1{fill:#25A3D8;}
	.st2{fill-rule:evenodd;clip-rule:evenodd;fill:none;stroke:#25A3D8;stroke-width:3.7765;stroke-miterlimit:10;}
	.st3{fill:#26A3D8;}
</style>
<path id="XMLID_5_" class="st0" d="M36,2c18.8,0,34,15.2,34,34c0,18.8-15.2,34-34,34S2,54.8,2,36C2,17.2,17.2,2,36,2 M36,0.1
	C16.2,0.1,0.1,16.2,0.1,36c0,19.8,16.1,35.9,35.9,35.9c19.8,0,35.9-16.1,35.9-35.9C71.9,16.2,55.8,0.1,36,0.1L36,0.1z"/>
<path id="XMLID_14_" class="st1" d="M72,36h-3.8c0-17.7-14.4-32.1-32.1-32.1V0.1C55.9,0.1,72,16.2,72,36z"/>
<path id="XMLID_3_" class="st2" d="M70.1,36c0,18.8-15.2,34-34,34"/>
<path id="XMLID_8_" class="st2" d="M36.1,70c-18.8,0-34-15.2-34-34"/>
<g id="XMLID_10_">
	<path id="XMLID_11_" class="st3" d="M33.1,32h2.3c1.8,0,2.8-0.9,2.8-2.7c0-0.7-0.2-1.3-0.7-1.7s-1.1-0.7-1.9-0.7
		c-0.7,0-1.2,0.2-1.7,0.6s-0.7,0.9-0.7,1.4h-4.9c0-1.1,0.3-2.1,0.9-3s1.5-1.6,2.6-2.1s2.3-0.7,3.7-0.7c2.4,0,4.2,0.5,5.6,1.6
		s2,2.6,2,4.5c0,0.9-0.3,1.8-0.8,2.6c-0.6,0.8-1.4,1.5-2.5,2c1.1,0.4,2,1,2.7,1.9s1,1.9,1,3.1c0,1.9-0.7,3.4-2.2,4.6
		s-3.4,1.7-5.8,1.7c-1.4,0-2.7-0.3-3.9-0.8S29.5,43,28.9,42S28,40,28,38.8h5c0,0.7,0.3,1.2,0.8,1.7s1.2,0.7,1.9,0.7
		c0.9,0,1.6-0.2,2.1-0.7s0.8-1.1,0.8-1.9c0-1.1-0.3-1.8-0.8-2.3s-1.3-0.7-2.2-0.7h-2.4V32z"/>
</g>
<g id="XMLID_1_">
</g>
<g id="XMLID_2_">
</g>
<g id="XMLID_4_">
</g>
<g id="XMLID_7_">
</g>
<g id="XMLID_16_">
</g>
<g id="XMLID_17_">
</g>
</svg>
