<?xml version="1.0" encoding="utf-8"?>
<!-- Generator: Adobe Illustrator 19.0.0, SVG Export Plug-In . SVG Version: 6.00 Build 0)  -->
<svg version="1.1" id="Layer_1" xmlns="http://www.w3.org/2000/svg" xmlns:xlink="http://www.w3.org/1999/xlink" x="0px" y="0px"
	 viewBox="0 0 72 72" style="enable-background:new 0 0 72 72;" xml:space="preserve">
<style type="text/css">
	.st0{fill:#EBEBEB;}
	.st1{fill:#25A3D8;}
	.st2{fill:#24A3D8;}
</style>
<path id="XMLID_4_" class="st0" d="M36.1,2c18.8,0,34,15.2,34,34c0,18.8-15.2,34-34,34s-34-15.2-34-34C2.1,17.2,17.3,2,36.1,2
	 M36.1,0.1C16.3,0.1,0.2,16.2,0.2,36c0,19.8,16.1,35.9,35.9,35.9C55.9,71.9,72,55.8,72,36C72,16.2,55.9,0.1,36.1,0.1L36.1,0.1z"/>
<path id="XMLID_10_" class="st1" d="M72,36h-3.8c0-17.7-14.4-32.1-32.1-32.1V0.1C55.9,0.1,72,16.2,72,36z"/>
<g id="XMLID_6_">
	<path id="XMLID_7_" class="st2" d="M39.6,44.8h-5V29l-4.9,1.4v-3.8l9.4-3.2h0.5V44.8z"/>
</g>
<g id="XMLID_1_">
</g>
<g id="XMLID_2_">
</g>
<g id="XMLID_3_">
</g>
<g id="XMLID_5_">
</g>
<g id="XMLID_12_">
</g>
<g id="XMLID_13_">
</g>
</svg>
