<?xml version="1.0" encoding="utf-8"?>
<!-- Generator: Adobe Illustrator 19.0.0, SVG Export Plug-In . SVG Version: 6.00 Build 0)  -->
<svg version="1.1" id="Layer_1" xmlns="http://www.w3.org/2000/svg" xmlns:xlink="http://www.w3.org/1999/xlink" x="0px" y="0px"
	 viewBox="0 0 72 72" style="enable-background:new 0 0 72 72;" xml:space="preserve">
<style type="text/css">
	.st0{fill:#269DD2;}
</style>
<g>
	<g>
		<g>
			<g>
				<path class="st0" d="M22.8,18.8c-0.7,0-1.3-0.6-1.3-1.3V8.8c0-0.7,0.6-1.3,1.3-1.3s1.3,0.6,1.3,1.3v8.8
					C24.1,18.2,23.5,18.8,22.8,18.8z"/>
				<path class="st0" d="M29.5,18.8c-0.7,0-1.3-0.6-1.3-1.3V8.8c0-0.7,0.6-1.3,1.3-1.3s1.3,0.6,1.3,1.3v8.8
					C30.8,18.2,30.2,18.8,29.5,18.8z"/>
				<path class="st0" d="M36.4,18.8c-0.7,0-1.3-0.6-1.3-1.3V8.8c0-0.7,0.6-1.3,1.3-1.3c0.7,0,1.3,0.6,1.3,1.3v8.8
					C37.6,18.2,37.1,18.8,36.4,18.8z"/>
			</g>
			<path class="st0" d="M45.9,64.5H13.3c-0.7,0-1.3-0.6-1.3-1.3c0-0.7,0.6-1.3,1.3-1.3h32.7c0.7,0,1.3,0.6,1.3,1.3
				C47.2,63.9,46.6,64.5,45.9,64.5z"/>
			<path class="st0" d="M49.9,47.5h-3.5V45h3.5c4.2,0,7.6-3.4,7.6-7.6c0-4.2-3.4-7.6-7.6-7.6h-3.5v-2.5h3.5
				c5.6,0,10.1,4.5,10.1,10.1C60,43,55.5,47.5,49.9,47.5z"/>
			<path class="st0" d="M29.6,60.5c-9.7,0-17.6-7.9-17.6-17.6V21.5h35.2v21.4C47.2,52.6,39.3,60.5,29.6,60.5z M14.5,24v18.8
				c0,8.3,6.8,15.1,15.1,15.1s15.1-6.8,15.1-15.1V24H14.5z"/>
		</g>
	</g>
</g>
<g>
</g>
<g>
</g>
<g>
</g>
<g>
</g>
<g>
</g>
<g>
</g>
</svg>
