<?xml version="1.0" encoding="utf-8"?>
<!-- Generator: Adobe Illustrator 19.0.1, SVG Export Plug-In . SVG Version: 6.00 Build 0)  -->
<svg version="1.1" id="Layer_1" xmlns="http://www.w3.org/2000/svg" xmlns:xlink="http://www.w3.org/1999/xlink" x="0px" y="0px"
	 viewBox="-258.2 371.8 50.3 50.3" style="enable-background:new -258.2 371.8 50.3 50.3;" xml:space="preserve">
<style type="text/css">
	.st0{fill:#269DD2;}
</style>
<g>
	<g>
		<g>
			<path class="st0" d="M-233,421v-1.2V421c-13.2,0-24-10.8-24-24c0-13.2,10.8-24,24-24c13.2,0,24,10.8,24,24
				C-209,410.2-219.8,421-233,421z M-233,375.3c-12,0-21.7,9.7-21.7,21.7s9.7,21.7,21.7,21.7l0,0c12,0,21.7-9.7,21.7-21.7
				S-221,375.3-233,375.3z"/>
			<g>
				<path id="XMLID_2_" class="st0" d="M-233,410.7c-4.4,0-7.9-3.3-7.9-7.5c0-0.6,0.5-1.2,1.2-1.2c0.7,0,1.2,0.5,1.2,1.2
					c0,2.8,2.5,5.1,5.6,5.1c3.1,0,5.6-2.3,5.6-5.1s-2.5-5.1-5.6-5.1c-4.4,0-7.9-3.3-7.9-7.5c0-4.2,3.5-7.5,7.9-7.5
					c2.3,0,4.5,1,6.1,2.7c0.4,0.5,0.4,1.2-0.1,1.6c-0.5,0.4-1.2,0.4-1.6-0.1c-1.1-1.2-2.7-1.9-4.3-1.9c-3.1,0-5.6,2.3-5.6,5.1
					c0,2.8,2.5,5.1,5.6,5.1c4.4,0,7.9,3.3,7.9,7.5C-225.1,407.4-228.6,410.7-233,410.7z"/>
				<path id="XMLID_1_" class="st0" d="M-233.2,414.2c-0.6,0-1.2-0.5-1.2-1.2v-32c0-0.6,0.5-1.2,1.2-1.2c0.6,0,1.2,0.5,1.2,1.2v32
					C-232.1,413.7-232.6,414.2-233.2,414.2z"/>
			</g>
		</g>
	</g>
</g>
<g id="XMLID_5_">
</g>
<g id="XMLID_6_">
</g>
<g id="XMLID_7_">
</g>
<g id="XMLID_8_">
</g>
<g id="XMLID_9_">
</g>
<g id="XMLID_10_">
</g>
</svg>
