<?xml version="1.0" encoding="utf-8"?>
<!-- Generator: Adobe Illustrator 19.0.1, SVG Export Plug-In . SVG Version: 6.00 Build 0)  -->
<svg version="1.1" id="Layer_1" xmlns="http://www.w3.org/2000/svg" xmlns:xlink="http://www.w3.org/1999/xlink" x="0px" y="0px"
	 viewBox="-260.5 369.5 55 55" style="enable-background:new -260.5 369.5 55 55;" xml:space="preserve">
<style type="text/css">
	.st0{fill:#269DD2;}
</style>
<g>
	<g>
		<g>
			<path class="st0" d="M-207.4,389.9h-51.2c-0.4,0-0.9-0.3-1.1-0.7c-0.2-0.4-0.1-0.9,0.2-1.2l12.3-14.6c0.2-0.3,0.5-0.4,0.9-0.4
				h26.7c0.3,0,0.7,0.1,0.9,0.4l12.2,14.6c0.3,0.3,0.4,0.8,0.2,1.2C-206.5,389.6-206.9,389.9-207.4,389.9z M-256.2,387.6h46.3
				l-10.3-12.3h-25.6L-256.2,387.6z"/>
			<polygon id="XMLID_3_" class="st0" points="-233,421 -259.5,389.5 -257.8,388 -233,417.4 -208.2,388 -206.5,389.5 			"/>
			<path class="st0" d="M-233,420.4c-0.5,0-0.9-0.3-1.1-0.8l-10.7-30.5c-0.1-0.4-0.1-0.8,0.2-1.1l10.7-14.6c0.2-0.3,0.6-0.5,0.9-0.5
				c0.4,0,0.7,0.2,0.9,0.5l10.7,14.6c0.2,0.3,0.3,0.7,0.2,1.1l-10.7,30.5C-232.1,420.1-232.5,420.4-233,420.4z M-242.4,388.9
				l9.4,26.8l9.4-26.8l-9.4-12.8L-242.4,388.9z"/>
		</g>
	</g>
</g>
<g id="XMLID_6_">
</g>
<g id="XMLID_7_">
</g>
<g id="XMLID_8_">
</g>
<g id="XMLID_9_">
</g>
<g id="XMLID_10_">
</g>
<g id="XMLID_11_">
</g>
</svg>
