<?xml version="1.0" encoding="utf-8"?>
<!-- Generator: Adobe Illustrator 19.0.0, SVG Export Plug-In . SVG Version: 6.00 Build 0)  -->
<svg version="1.1" id="Layer_1" xmlns="http://www.w3.org/2000/svg" xmlns:xlink="http://www.w3.org/1999/xlink" x="0px" y="0px"
	 viewBox="0 0 72 72" style="enable-background:new 0 0 72 72;" xml:space="preserve">
<style type="text/css">
	.st0{fill:#7DAAD3;}
</style>
<path id="XMLID_3_" class="st0" d="M59.3,25.3L37.8,48.8c-0.1,0.3-0.2,0.5-0.4,0.6C37.1,49.8,36.6,50,36,50
	c-0.6,0.1-1.1-0.1-1.5-0.6c-0.1-0.1-0.3-0.4-0.4-0.6L12.6,25.3c-0.4-0.4-0.6-0.8-0.6-1.3s0.2-1,0.6-1.3c0.4-0.4,0.8-0.6,1.3-0.6
	c0.6,0,1,0.2,1.3,0.6L36,45.2l20.7-22.7C57,22.2,57.5,22,58,22c0.6,0,1,0.2,1.4,0.6c0.4,0.4,0.6,0.8,0.6,1.3S59.7,24.9,59.3,25.3
	L59.3,25.3z"/>
<g id="XMLID_8_">
</g>
<g>
</g>
<g>
</g>
<g>
</g>
<g>
</g>
<g>
</g>
<g>
</g>
</svg>
