<?xml version="1.0" encoding="utf-8"?>
<!-- Generator: Adobe Illustrator 19.0.0, SVG Export Plug-In . SVG Version: 6.00 Build 0)  -->
<svg version="1.1" id="Layer_1" xmlns="http://www.w3.org/2000/svg" xmlns:xlink="http://www.w3.org/1999/xlink" x="0px" y="0px"
	 viewBox="0 0 72 72" style="enable-background:new 0 0 72 72;" xml:space="preserve">
<style type="text/css">
	.st0{fill:#269DD2;}
</style>
<g>
	<path id="XMLID_12_" class="st0" d="M7.4,37c-0.6,0-1.2-0.5-1.2-1.2s0.5-1.2,1.2-1.2h27.4c0.6,0,1.2,0.5,1.2,1.2S35.4,37,34.7,37
		H7.4z"/>
	<path id="XMLID_11_" class="st0" d="M50.1,37c-0.6,0-1.2-0.5-1.2-1.2s0.5-1.2,1.2-1.2h14.5c0.6,0,1.2,0.5,1.2,1.2S65.3,37,64.6,37
		H50.1z"/>
	<path id="XMLID_10_" class="st0" d="M7.4,55.4c-0.6,0-1.2-0.5-1.2-1.2c0-0.6,0.5-1.2,1.2-1.2H27c0.6,0,1.2,0.5,1.2,1.2
		c0,0.6-0.5,1.2-1.2,1.2H7.4z"/>
	<path id="XMLID_9_" class="st0" d="M42.4,55.4c-0.6,0-1.2-0.5-1.2-1.2c0-0.6,0.5-1.2,1.2-1.2h22.2c0.6,0,1.2,0.5,1.2,1.2
		c0,0.6-0.5,1.2-1.2,1.2H42.4z"/>
	<path id="XMLID_8_" class="st0" d="M7.4,18.9c-0.6,0-1.2-0.5-1.2-1.2c0-0.6,0.5-1.2,1.2-1.2h11.3c0.6,0,1.2,0.5,1.2,1.2
		c0,0.6-0.5,1.2-1.2,1.2H7.4z"/>
	<path id="XMLID_7_" class="st0" d="M34,18.9c-0.6,0-1.2-0.5-1.2-1.2c0-0.6,0.5-1.2,1.2-1.2h30.6c0.6,0,1.2,0.5,1.2,1.2
		c0,0.6-0.5,1.2-1.2,1.2H34z"/>
	<path class="st0" d="M23.2,23.4c-3.1,0-5.7-2.6-5.7-5.7S20,12,23.2,12s5.7,2.6,5.7,5.7S26.3,23.4,23.2,23.4z M23.2,14.3
		c-1.9,0-3.4,1.5-3.4,3.4s1.5,3.4,3.4,3.4s3.4-1.5,3.4-3.4C26.6,15.8,25,14.3,23.2,14.3z"/>
	<path class="st0" d="M31.5,60c-3.1,0-5.7-2.6-5.7-5.7s2.6-5.7,5.7-5.7s5.7,2.6,5.7,5.7S34.6,60,31.5,60z M31.5,50.9
		c-1.9,0-3.4,1.5-3.4,3.4c0,1.9,1.5,3.4,3.4,3.4c1.9,0,3.4-1.5,3.4-3.4C34.9,52.4,33.4,50.9,31.5,50.9z"/>
	<path class="st0" d="M39.3,41.5c-3.1,0-5.7-2.6-5.7-5.7s2.6-5.7,5.7-5.7s5.7,2.6,5.7,5.7C45,39,42.4,41.5,39.3,41.5z M39.3,32.4
		c-1.9,0-3.4,1.5-3.4,3.4c0,1.9,1.5,3.4,3.4,3.4c1.9,0,3.4-1.5,3.4-3.4C42.6,33.9,41.1,32.4,39.3,32.4z"/>
</g>
<g id="XMLID_13_">
</g>
<g id="XMLID_14_">
</g>
<g id="XMLID_15_">
</g>
<g id="XMLID_16_">
</g>
<g id="XMLID_17_">
</g>
<g id="XMLID_18_">
</g>
</svg>
