<?xml version="1.0" encoding="utf-8"?>
<!-- Generator: Adobe Illustrator 19.0.1, SVG Export Plug-In . SVG Version: 6.00 Build 0)  -->
<svg version="1.1" id="Layer_1" xmlns="http://www.w3.org/2000/svg" xmlns:xlink="http://www.w3.org/1999/xlink" x="0px" y="0px"
	 viewBox="-279 371.7 51.3 51.3" style="enable-background:new -279 371.7 51.3 51.3;" xml:space="preserve">
<style type="text/css">
	.st0{fill:#FFFFFF;}
</style>
<g>
	<g id="_x31__36_">
		<g>
			<path id="XMLID_3_" class="st0" d="M-244.9,390.6l6.3,5.2h-22.8c-0.9,0-1.6,0.7-1.6,1.6s0.7,1.6,1.6,1.6h22.9l-6.4,5.3
				c-0.6,0.6-0.6,1.6,0,2.3c0.6,0.6,1.7,0.6,2.3,0l9.6-7.9c0.3-0.3,0.5-0.8,0.5-1.2s-0.1-0.9-0.5-1.2l-9.6-7.9
				c-0.6-0.6-1.7-0.6-2.3,0C-245.6,388.9-245.6,389.9-244.9,390.6z M-274.2,375v44.8c0,0.9,0.7,1.6,1.6,1.6h12.8
				c0.9,0,1.6-0.7,1.6-1.6s-0.7-1.6-1.6-1.6H-271v-41.6h11.2c0.9,0,1.6-0.7,1.6-1.6s-0.7-1.6-1.6-1.6h-12.8
				C-273.5,373.4-274.2,374.1-274.2,375z"/>
		</g>
	</g>
</g>
<g id="XMLID_4_">
</g>
<g id="XMLID_5_">
</g>
<g id="XMLID_6_">
</g>
<g id="XMLID_7_">
</g>
<g id="XMLID_8_">
</g>
<g id="XMLID_9_">
</g>
</svg>
