<?xml version="1.0" encoding="utf-8"?>
<!-- Generator: Adobe Illustrator 19.0.0, SVG Export Plug-In . SVG Version: 6.00 Build 0)  -->
<svg version="1.1" id="Layer_1" xmlns="http://www.w3.org/2000/svg" xmlns:xlink="http://www.w3.org/1999/xlink" x="0px" y="0px"
	 viewBox="0 0 72 72" style="enable-background:new 0 0 72 72;" xml:space="preserve">
<style type="text/css">
	.st0{fill:#24A3D8;}
</style>
<g>
	<g id="_x31__36_">
		<g>
			<path id="XMLID_3_" class="st0" d="M44.5,29.2l6.3,5.2H28c-0.9,0-1.6,0.7-1.6,1.6s0.7,1.6,1.6,1.6h22.9l-6.4,5.3
				c-0.6,0.6-0.6,1.6,0,2.3c0.6,0.6,1.7,0.6,2.3,0l9.6-7.9c0.3-0.3,0.5-0.8,0.5-1.2s-0.1-0.9-0.5-1.2L46.8,27
				c-0.6-0.6-1.7-0.6-2.3,0C43.8,27.5,43.8,28.5,44.5,29.2z M15.2,13.6v44.8c0,0.9,0.7,1.6,1.6,1.6h12.8c0.9,0,1.6-0.7,1.6-1.6
				s-0.7-1.6-1.6-1.6H18.4V15.2h11.2c0.9,0,1.6-0.7,1.6-1.6S30.5,12,29.6,12H16.8C15.9,12,15.2,12.7,15.2,13.6z"/>
		</g>
	</g>
</g>
<g id="XMLID_4_">
</g>
<g id="XMLID_5_">
</g>
<g id="XMLID_6_">
</g>
<g id="XMLID_7_">
</g>
<g id="XMLID_8_">
</g>
<g id="XMLID_9_">
</g>
</svg>
