<?xml version="1.0" encoding="utf-8"?>
<!-- Generator: Adobe Illustrator 19.0.0, SVG Export Plug-In . SVG Version: 6.00 Build 0)  -->
<svg version="1.1" id="Layer_1" xmlns="http://www.w3.org/2000/svg" xmlns:xlink="http://www.w3.org/1999/xlink" x="0px" y="0px"
	 viewBox="0 0 72 72" style="enable-background:new 0 0 72 72;" xml:space="preserve">
<style type="text/css">
	.st0{fill:#26A3D8;}
</style>
<g>
	<path class="st0" d="M59.5,34.2c-2.5-4.1-5.9-7.4-10.1-9.9s-8.7-3.7-13.4-3.7s-9.2,1.2-13.4,3.7c-4.2,2.5-7.6,5.8-10.1,9.9
		C12.2,34.8,12,35.4,12,36s0.2,1.2,0.5,1.8c2.5,4.1,5.9,7.4,10.1,9.9s8.7,3.7,13.4,3.7c4.7,0,9.2-1.2,13.4-3.7
		c4.2-2.5,7.6-5.8,10.1-9.9c0.4-0.6,0.5-1.2,0.5-1.8C60,35.4,59.8,34.8,59.5,34.2z M30.3,26.8c1.6-1.6,3.5-2.4,5.7-2.4
		c0.4,0,0.7,0.1,0.9,0.4c0.3,0.3,0.4,0.6,0.4,0.9c0,0.4-0.1,0.7-0.4,0.9C36.7,26.9,36.4,27,36,27c-1.5,0-2.9,0.5-3.9,1.6
		c-1.1,1.1-1.6,2.4-1.6,3.9c0,0.4-0.1,0.7-0.4,0.9s-0.6,0.4-0.9,0.4c-0.4,0-0.7-0.1-0.9-0.4c-0.3-0.3-0.4-0.6-0.4-0.9
		C27.9,30.3,28.7,28.4,30.3,26.8z M47.6,44.7C44.1,46.9,40.2,48,36,48c-4.2,0-8.1-1.1-11.6-3.3s-6.6-5.1-8.9-8.7
		c2.7-4.2,6.1-7.4,10.2-9.5c-1.1,1.9-1.6,3.9-1.6,6c0,3.3,1.2,6.1,3.5,8.5c2.3,2.3,5.2,3.5,8.5,3.5c3.3,0,6.1-1.2,8.5-3.5
		c2.4-2.3,3.5-5.2,3.5-8.5c0-2.2-0.5-4.2-1.6-6c4.1,2.1,7.5,5.2,10.2,9.5C54.2,39.7,51.2,42.6,47.6,44.7z"/>
</g>
<g>
</g>
<g>
</g>
<g>
</g>
<g>
</g>
<g>
</g>
<g>
</g>
</svg>
