<?xml version="1.0" encoding="utf-8"?>
<!-- Generator: Adobe Illustrator 19.0.1, SVG Export Plug-In . SVG Version: 6.00 Build 0)  -->
<svg version="1.1" id="Layer_1" xmlns="http://www.w3.org/2000/svg" xmlns:xlink="http://www.w3.org/1999/xlink" x="0px" y="0px"
	 viewBox="-262.8 367.3 59.5 59.5" style="enable-background:new -262.8 367.3 59.5 59.5;" xml:space="preserve">
<style type="text/css">
	.st0{fill:#269DD2;}
</style>
<path id="XMLID_3_" class="st0" d="M-205.6,384.8c-0.6,0-1.1-0.5-1.1-1.1v-4.3c0-0.4-0.3-0.7-0.7-0.7h-33.5c-1.3,0-2.9-0.7-3.7-1.6
	l-1-1.1c-0.5-0.5-1.5-0.9-2.2-0.9h-10.8c-0.4,0-0.7,0.3-0.7,0.7v7.9c0,0.6-0.5,1.1-1.1,1.1s-1.1-0.5-1.1-1.1v-7.9
	c0-1.6,1.3-2.8,2.8-2.8h10.8c1.3,0,2.9,0.7,3.7,1.6l1,1.1c0.5,0.5,1.5,0.9,2.2,0.9h33.5c1.6,0,2.8,1.3,2.8,2.8v4.3
	C-204.6,384.3-205.1,384.8-205.6,384.8z"/>
<path class="st0" d="M-258.6,421c-1.6,0-2.8-1.3-2.8-2.8v-26.3c0-1.6,1.3-2.8,2.8-2.8h51.2c1.6,0,2.8,1.3,2.8,2.8v26.3
	c0,1.6-1.3,2.8-2.8,2.8H-258.6L-258.6,421z M-258.6,391.2c-0.4,0-0.7,0.3-0.7,0.7v26.3c0,0.4,0.3,0.7,0.7,0.7h51.2
	c0.4,0,0.7-0.3,0.7-0.7v-26.3c0-0.4-0.3-0.7-0.7-0.7C-207.4,391.2-258.6,391.2-258.6,391.2z"/>
<g id="XMLID_4_">
</g>
<g id="XMLID_5_">
</g>
<g id="XMLID_6_">
</g>
<g id="XMLID_7_">
</g>
<g id="XMLID_8_">
</g>
<g id="XMLID_9_">
</g>
</svg>
