<?xml version="1.0" encoding="utf-8"?>
<!-- Generator: Adobe Illustrator 19.0.0, SVG Export Plug-In . SVG Version: 6.00 Build 0)  -->
<svg version="1.1" id="Layer_1" xmlns="http://www.w3.org/2000/svg" xmlns:xlink="http://www.w3.org/1999/xlink" x="0px" y="0px"
	 viewBox="0 0 72 72" style="enable-background:new 0 0 72 72;" xml:space="preserve">
<style type="text/css">
	.st0{fill:#494849;}
</style>
<path id="XMLID_4_" class="st0" d="M41.9,36.4c0-1-0.1-1.8-0.3-2.5H27.3l0,0v5.2h8.6c-0.4,2.3-2.6,6.5-8.6,6.5
	c-5.2,0-9.5-4.3-9.5-9.6s4.2-9.6,9.5-9.6c3,0,5,1.2,6.1,2.3l4.2-4c-2.6-2.5-6.1-4-10.2-4C18.9,20.9,12,27.7,12,36
	s6.9,15.1,15.3,15.1C36.1,51.1,41.9,45,41.9,36.4z M60,33.9h-4.3v-4.3h-4.4v4.3h-4.3v4.3h4.3v4.3h4.4v-4.3H60V33.9z"/>
<g id="XMLID_9_">
</g>
<g>
</g>
<g>
</g>
<g>
</g>
<g>
</g>
<g>
</g>
<g>
</g>
</svg>
