<?xml version="1.0" encoding="utf-8"?>
<!-- Generator: Adobe Illustrator 19.0.1, SVG Export Plug-In . SVG Version: 6.00 Build 0)  -->
<svg version="1.1" id="Layer_1" xmlns="http://www.w3.org/2000/svg" xmlns:xlink="http://www.w3.org/1999/xlink" x="0px" y="0px"
	 viewBox="0 0 264.7 46.4" style="enable-background:new 0 0 264.7 46.4;" xml:space="preserve">
<style type="text/css">
	.st0{fill:#FFFFFF;}
</style>
<path class="st0" d="M28.1,46.2H11.6c-5.9,0-10-4.6-11.3-12.7c-0.5-3.2-0.1-6.1,0.6-7.6c0,0,0-0.1,0.1-0.1l0.6-1.1
	c0.3-0.7,1-1.1,1.8-1.1h21c3.4,0,6.2,2.8,6.2,6.2v1.5c0,3.4-2.8,6.2-6.2,6.2H11.8c-1.1,0-2-0.9-2-2c0-1.1,0.9-2,2-2h12.4
	c1.2,0,2.2-1,2.2-2.2v-1.5c0-1.2-1-2.2-2.2-2.2H4.4c-0.3,0.8-0.6,2.8-0.2,5.2c0.6,3.5,2.3,9.4,7.4,9.4h16.5c3.9,0,5.9-2.4,7.1-8.5
	l1.4-8.4c0.2-1.1,1.2-1.8,2.3-1.7c1.1,0.2,1.8,1.2,1.7,2.3l-1.4,8.4c0,0,0,0,0,0c0,0,0,0,0,0.1C38.5,37.7,36.8,46.2,28.1,46.2"/>
<path class="st0" d="M10.2,19.8c0.3,0.2,0.6,0.3,1,0.3c0.7,0,1.3-0.3,1.7-0.9c0.5-0.9,0.2-2-0.7-2.5c-1.1-0.6-1.8-1.7-2-3.1
	c-0.2-1.4,0.2-2.8,1-3.7c0,0,0,0,0,0c0.2-0.2,0.4-0.5,0.6-0.7c1.8-2,3.6-4,4.2-6.9c0.2-1-0.5-2-1.6-2.1c-1-0.2-2,0.5-2.2,1.5
	C11.8,3.5,10.5,5,8.9,6.7C8.7,6.9,8.5,7.1,8.3,7.4c-1.6,1.8-2.3,4.3-1.9,6.7C6.7,16.6,8.1,18.6,10.2,19.8"/>
<path class="st0" d="M16.2,15.6c0.6,1.6,1.8,3,3.2,4.1c0.3,0.3,0.8,0.4,1.2,0.4c0.6,0,1.2-0.3,1.5-0.7c0.6-0.8,0.5-2-0.4-2.6
	c-0.9-0.6-1.6-1.5-1.9-2.4c-0.8-1.9,0-3.7,2.4-6.2c1.7-1.8,2.8-3.8,3.2-6c0.2-1-0.5-2-1.6-2.1c-1.1-0.2-2,0.5-2.2,1.5
	c-0.2,1.4-1,2.8-2.2,4C18.1,6.9,14.2,10.8,16.2,15.6"/>
<rect x="57.7" y="24" class="st0" width="3.9" height="22.3"/>
<polygon class="st0" points="82.4,46.2 75.6,35.9 72.5,30.8 72.4,30.8 72.4,46.2 68.5,46.2 68.5,24 72.1,24 78.3,33.4 82.1,39.5 
	82.2,39.4 82.2,24 86,24 86,46.2 "/>
<polygon class="st0" points="101.3,46.2 98.1,46.2 90.5,24 94.7,24 97.9,34.1 99.7,40 99.8,40 101.5,34.2 104.6,24 108.8,24 "/>
<path class="st0" d="M120.8,23.8c1.3,0,2.4,0.2,3.5,0.6c1,0.4,1.9,1,2.6,1.8c0.7,0.7,1.3,1.6,1.7,2.7c0.4,1,0.6,2.2,0.6,3.4V38
	c0,1.3-0.2,2.5-0.6,3.5c-0.4,1-1,1.9-1.7,2.7c-0.7,0.7-1.6,1.3-2.6,1.7c-1,0.4-2.2,0.6-3.4,0.6c-1.4,0-2.6-0.2-3.6-0.7
	c-1-0.5-1.9-1.1-2.6-1.9c-0.7-0.8-1.2-1.7-1.5-2.7c-0.3-1-0.5-2.1-0.5-3.2v-5.7c0-1.1,0.2-2.2,0.5-3.2c0.3-1,0.9-1.9,1.5-2.7
	c0.7-0.8,1.5-1.4,2.6-1.9C118.2,24,119.4,23.8,120.8,23.8 M120.8,27.5c-0.7,0-1.4,0.1-1.9,0.4c-0.5,0.3-1,0.6-1.4,1
	c-0.4,0.4-0.6,0.9-0.8,1.5c-0.2,0.6-0.3,1.1-0.3,1.7v6c0,0.6,0.1,1.2,0.3,1.8c0.2,0.6,0.5,1.1,0.8,1.5c0.4,0.4,0.8,0.8,1.4,1.1
	c0.5,0.3,1.2,0.4,1.9,0.4c0.7,0,1.3-0.1,1.8-0.4c0.5-0.2,1-0.6,1.4-1c0.4-0.4,0.7-0.9,0.9-1.5c0.2-0.6,0.3-1.2,0.3-1.9v-6
	c0-0.6-0.1-1.2-0.3-1.8c-0.2-0.6-0.5-1-0.9-1.5s-0.8-0.7-1.4-1C122.1,27.6,121.5,27.5,120.8,27.5"/>
<rect x="135.2" y="24" class="st0" width="3.9" height="22.3"/>
<path class="st0" d="M161.2,41.2c-0.6,1.6-1.5,2.9-2.9,3.8c-1.4,0.9-3,1.4-4.9,1.4c-1.4,0-2.6-0.2-3.6-0.7s-1.9-1-2.6-1.8
	c-0.7-0.8-1.2-1.7-1.5-2.7c-0.3-1-0.5-2.1-0.5-3.3v-5.7c0-1.1,0.2-2.2,0.5-3.2c0.3-1,0.8-1.9,1.5-2.7c0.7-0.8,1.5-1.4,2.6-1.9
	c1-0.5,2.3-0.7,3.6-0.7c2,0,3.6,0.5,4.9,1.4c1.3,0.9,2.3,2.2,2.8,3.8l-3.6,1.4c-0.3-0.9-0.8-1.6-1.5-2.1c-0.7-0.5-1.6-0.8-2.7-0.8
	c-0.7,0-1.4,0.1-1.9,0.4c-0.5,0.3-1,0.6-1.4,1c-0.4,0.4-0.6,0.9-0.8,1.5c-0.2,0.6-0.3,1.1-0.3,1.7V38c0,0.6,0.1,1.2,0.3,1.8
	c0.2,0.6,0.5,1.1,0.8,1.5c0.4,0.4,0.8,0.8,1.4,1.1c0.5,0.3,1.2,0.4,1.9,0.4c1.1,0,2-0.3,2.7-0.8c0.7-0.6,1.2-1.3,1.5-2.2L161.2,41.2
	z"/>
<polygon class="st0" points="166.4,46.2 166.4,24 181.3,24 181.3,27.5 170.3,27.5 170.3,33.3 179.7,33.3 179.7,36.7 170.3,36.7 
	170.3,42.7 181.3,42.7 181.3,46.2 "/>
<path class="st0" d="M202.6,41.2c-0.6,1.6-1.5,2.9-2.9,3.8c-1.4,0.9-3,1.4-4.9,1.4c-1.4,0-2.6-0.2-3.6-0.7c-1-0.4-1.9-1-2.6-1.8
	c-0.7-0.8-1.2-1.7-1.5-2.7c-0.3-1-0.5-2.1-0.5-3.3v-5.7c0-1.1,0.2-2.2,0.5-3.2c0.3-1,0.8-1.9,1.5-2.7c0.7-0.8,1.5-1.4,2.6-1.9
	c1-0.5,2.3-0.7,3.6-0.7c2,0,3.6,0.5,4.9,1.4c1.3,0.9,2.3,2.2,2.8,3.8l-3.6,1.4c-0.3-0.9-0.8-1.6-1.5-2.1c-0.7-0.5-1.6-0.8-2.7-0.8
	c-0.7,0-1.4,0.1-1.9,0.4c-0.5,0.3-1,0.6-1.4,1c-0.4,0.4-0.6,0.9-0.8,1.5c-0.2,0.6-0.3,1.1-0.3,1.7V38c0,0.6,0.1,1.2,0.3,1.8
	c0.2,0.6,0.5,1.1,0.8,1.5c0.4,0.4,0.8,0.8,1.4,1.1c0.5,0.3,1.2,0.4,1.9,0.4c1.1,0,2-0.3,2.7-0.8c0.7-0.6,1.2-1.3,1.5-2.2L202.6,41.2
	z"/>
<path class="st0" d="M221.4,46.2l-1.8-4.9h-8.3l-1.8,4.9h-4.1l8.4-22.3h3.1l8.4,22.3H221.4z M217,33.5l-1.5-4.6h-0.1l-1.4,4.5
	l-1.5,4.6h6L217,33.5z"/>
<polygon class="st0" points="234,27.5 234,33.5 243.4,33.5 243.4,36.9 234,36.9 234,46.2 230.1,46.2 230.1,24 245,24 245,27.5 "/>
<polygon class="st0" points="249.8,46.2 249.8,24 264.7,24 264.7,27.5 253.6,27.5 253.6,33.3 263,33.3 263,36.7 253.6,36.7 
	253.6,42.7 264.7,42.7 264.7,46.2 "/>
<polygon class="st0" points="254.3,19.9 259.6,15.9 262,18.6 255.8,21.7 "/>
</svg>
