<?xml version="1.0" encoding="utf-8"?>
<!-- Generator: Adobe Illustrator 19.0.1, SVG Export Plug-In . SVG Version: 6.00 Build 0)  -->
<svg version="1.1" id="Layer_1" xmlns="http://www.w3.org/2000/svg" xmlns:xlink="http://www.w3.org/1999/xlink" x="0px" y="0px"
	 viewBox="-265 365 64 64" style="enable-background:new -265 365 64 64;" xml:space="preserve">
<style type="text/css">
	.st0{clip-path:url(#SVGID_2_);fill:#26A3D8;}
	.st1{fill:#26A3D8;}
</style>
<g>
	<g>
		<g>
			<g>
				<defs>
					<rect id="SVGID_1_" x="-257" y="365.8" width="48" height="62.4"/>
				</defs>
				<clipPath id="SVGID_2_">
					<use xlink:href="#SVGID_1_"  style="overflow:visible;"/>
				</clipPath>
				<path class="st0" d="M-220.9,370.5l-21.5,21.6c-0.2,0.2-0.3,0.3-0.3,0.7l-1.9,7.1c-0.2,0.5,0,1,0.3,1.4c0.3,0.3,0.7,0.3,1,0.3
					c0.2,0,0.2,0,0.3,0l7.1-1.9c0.2,0,0.5-0.2,0.7-0.3l21.5-21.5l0,0l0,0l4.1-4.4c0.5-0.5,0.5-1.4,0-1.9l-5.3-5.3
					c-0.2-0.3-0.5-0.3-0.9-0.3c-0.3,0-0.7,0.2-1,0.3L-220.9,370.5L-220.9,370.5L-220.9,370.5L-220.9,370.5z M-237,397.2l-4.6,1.2
					l1.2-4.6l20.4-20.4l3.4,3.4L-237,397.2z M-215.6,369.2l3.4,3.4l-2.4,2.4l-3.4-3.4L-215.6,369.2z"/>
			</g>
		</g>
	</g>
	<path class="st1" d="M-210.4,380.5c-0.7,0-1.4,0.7-1.4,1.4v43.6h-42.5v-51.9h25.1c0.7,0,1.4-0.7,1.4-1.4c0-0.7-0.7-1.4-1.4-1.4
		h-26.4c-0.8,0-1.4,0.7-1.4,1.4v54.6c0,0.7,0.7,1.4,1.4,1.4h45.3c0.7,0,1.4-0.7,1.4-1.4v-44.9C-209,381.2-209.7,380.5-210.4,380.5
		L-210.4,380.5z"/>
</g>
</svg>
