<?xml version="1.0" encoding="utf-8"?>
<!-- Generator: Adobe Illustrator 19.0.0, SVG Export Plug-In . SVG Version: 6.00 Build 0)  -->
<svg version="1.1" id="Layer_1" xmlns="http://www.w3.org/2000/svg" xmlns:xlink="http://www.w3.org/1999/xlink" x="0px" y="0px"
	 viewBox="0 0 72 72" style="enable-background:new 0 0 72 72;" xml:space="preserve">
<style type="text/css">
	.st0{fill:#FFFFFF;}
</style>
<g id="XMLID_2_">
	<g id="XMLID_38_">
		<path id="XMLID_39_" class="st0" d="M52.2,21.5c-1.4-2.2-3.3-3.9-5.8-5.1c-2.5-1.2-5.4-1.8-8.7-1.8h-17V45h-3v8h3v4.4H31V53h8.7
			v-8H31v-2.1h6.6c5.2,0,9.3-1.2,12.3-3.7s4.5-5.8,4.5-10C54.2,26.3,53.5,23.8,52.2,21.5z M42.2,33.5c-1,1-2.6,1.5-4.6,1.5h-6.7
			V22.5h6.9c1.9,0,3.3,0.6,4.4,1.8c1.1,1.2,1.6,2.8,1.6,4.8C43.8,31,43.3,32.5,42.2,33.5z"/>
	</g>
</g>
<g id="XMLID_7_">
</g>
<g id="XMLID_4_">
</g>
<g id="XMLID_5_">
</g>
<g id="XMLID_6_">
</g>
<g id="XMLID_8_">
</g>
<g id="XMLID_9_">
</g>
<g id="XMLID_10_">
</g>
</svg>
