<?xml version="1.0" encoding="utf-8"?>
<!-- Generator: Adobe Illustrator 19.0.0, SVG Export Plug-In . SVG Version: 6.00 Build 0)  -->
<svg version="1.1" id="Layer_1" xmlns="http://www.w3.org/2000/svg" xmlns:xlink="http://www.w3.org/1999/xlink" x="0px" y="0px"
	 viewBox="0 0 72 72" style="enable-background:new 0 0 72 72;" xml:space="preserve">
<style type="text/css">
	.st0{fill:#8CCBE4;}
</style>
<g id="XMLID_2_">
	<g id="XMLID_38_">
		<path id="XMLID_39_" class="st0" d="M57.1,17.1c-1.8-2.9-4.3-5.1-7.6-6.7s-7.1-2.4-11.4-2.4H15.9v39.6H12v10.5h3.9v5.8h13.5v-5.8
			h11.4V47.7H29.4V45H38c6.8,0,12.2-1.6,16.1-4.8S60,32.5,60,27C59.7,23.4,58.8,20.1,57.1,17.1z M44,32.7c-1.3,1.3-3.4,2-6,2h-8.8
			V18.4h9c2.5,0,4.3,0.8,5.8,2.4c1.4,1.6,2.1,3.7,2.1,6.3C46.1,29.5,45.5,31.4,44,32.7z"/>
	</g>
</g>
<g id="XMLID_7_">
</g>
<g>
</g>
<g>
</g>
<g>
</g>
<g>
</g>
<g>
</g>
<g>
</g>
</svg>
