<?xml version="1.0" encoding="utf-8"?>
<!-- Generator: Adobe Illustrator 19.0.1, SVG Export Plug-In . SVG Version: 6.00 Build 0)  -->
<svg version="1.1" id="Layer_1" xmlns="http://www.w3.org/2000/svg" xmlns:xlink="http://www.w3.org/1999/xlink" x="0px" y="0px"
	 viewBox="-269 361 72 72" style="enable-background:new -269 361 72 72;" xml:space="preserve">
<style type="text/css">
	.st0{fill:#333333;}
</style>
<g id="XMLID_2_">
	<g id="XMLID_29_">
		<path id="XMLID_30_" class="st0" d="M-214.6,372c-3.6-3-8.4-4.7-14.8-4.7h-20.1v45.2h-7.5v4.7h7.5v9.5h5v-9.5h22v-4.7h-22v-9.8
			h15.1c6.4,0,11.4-1.4,15.1-4.5c3.3-3,5.3-7.2,5.3-12.8C-209.3,379.8-211,375.1-214.6,372z M-217.9,394.6
			c-2.5,2.2-6.4,3.3-11.2,3.3h-15.3v-26.4h15.6c4.7,0,8.4,1.4,10.9,3.6c2.5,2.5,3.9,5.9,3.9,9.8
			C-214.3,389.3-215.4,392.4-217.9,394.6z"/>
	</g>
</g>
<g id="XMLID_10_">
</g>
</svg>
