<?xml version="1.0" encoding="utf-8"?>
<!-- Generator: Adobe Illustrator 19.0.0, SVG Export Plug-In . SVG Version: 6.00 Build 0)  -->
<svg version="1.1" id="Layer_1" xmlns="http://www.w3.org/2000/svg" xmlns:xlink="http://www.w3.org/1999/xlink" x="0px" y="0px"
	 viewBox="0 0 72 72" style="enable-background:new 0 0 72 72;" xml:space="preserve">
<style type="text/css">
	.st0{fill:#333333;}
</style>
<g>
	<g id="XMLID_29_">
		<path id="XMLID_30_" class="st0" d="M39.6,42.2c6.7,0,11.4-1.4,15.2-4.8c3.8-3.3,5.2-7.6,5.2-13.3c0-5.2-1.9-10-5.2-13.3
			C51,7.5,46.2,5.6,39.6,5.6H16.3v46.6H12v4.8h4.3v9.5h8.1v-9.5h20.9v-4.8H24.4v-10H39.6z M24.4,12.2h15.2c4.3,0,7.1,1,9,3.3
			c1.9,2.4,2.9,5.2,2.9,8.6s-1,6.2-2.9,8.6s-5.2,3.3-9,3.3H24.4V12.2z"/>
	</g>
</g>
<g id="XMLID_6_">
</g>
<g>
</g>
<g>
</g>
<g>
</g>
<g>
</g>
<g>
</g>
<g>
</g>
</svg>
