<?xml version="1.0" encoding="utf-8"?>
<!-- Generator: Adobe Illustrator 19.0.0, SVG Export Plug-In . SVG Version: 6.00 Build 0)  -->
<svg version="1.1" id="Layer_1" xmlns="http://www.w3.org/2000/svg" xmlns:xlink="http://www.w3.org/1999/xlink" x="0px" y="0px"
	 viewBox="0 0 72 72" style="enable-background:new 0 0 72 72;" xml:space="preserve">
<style type="text/css">
	.st0{fill:#29A3D8;}
</style>
<g id="XMLID_2_">
	<g id="XMLID_29_">
		<path id="XMLID_30_" class="st0" d="M54.4,11C50.8,8,46,6.3,39.6,6.3H19.5v45.2H12v4.7h7.5v9.5h5v-9.5h22v-4.7h-22v-9.8h15.1
			c6.4,0,11.4-1.4,15.1-4.5C58,34.2,60,30,60,24.4C59.7,18.6,58,14.1,54.4,11z M51.1,33.6c-2.5,2.2-6.4,3.3-11.2,3.3H24.6V10.5h15.6
			c4.7,0,8.4,1.4,10.9,3.6c2.5,2.5,3.9,5.9,3.9,9.8C54.7,28.3,53.6,31.4,51.1,33.6z"/>
	</g>
</g>
<g id="XMLID_7_">
</g>
<g>
</g>
<g>
</g>
<g>
</g>
<g>
</g>
<g>
</g>
<g>
</g>
</svg>
