<?xml version="1.0" encoding="utf-8"?>
<!-- Generator: Adobe Illustrator 19.0.0, SVG Export Plug-In . SVG Version: 6.00 Build 0)  -->
<svg version="1.1" id="Layer_1" xmlns="http://www.w3.org/2000/svg" xmlns:xlink="http://www.w3.org/1999/xlink" x="0px" y="0px"
	 viewBox="0 0 72 72" style="enable-background:new 0 0 72 72;" xml:space="preserve">
<style type="text/css">
	.st0{fill:#269DD2;}
</style>
<path class="st0" d="M16.5,43.2c-1.2,0-2.2-1-2.2-2.2V14.7c0-1.2,1-2.2,2.2-2.2h39c1.2,0,2.2,1,2.2,2.2V41c0,1.2-1,2.2-2.2,2.2H16.5
	L16.5,43.2z M16.3,41.2h39.3V14.6H16.3V41.2z"/>
<path id="XMLID_3_" class="st0" d="M29,48.6c-0.6,0-1-0.5-1-1s0.5-1,1-1H43c0.6,0,1,0.5,1,1s-0.5,1-1,1H29z"/>
<path id="XMLID_2_" class="st0" d="M36,60.6c-0.6,0-1-0.5-1-1v-7.1c0-0.6,0.5-1,1-1s1,0.5,1,1v7.1C37,60.1,36.6,60.6,36,60.6z"/>
<path id="XMLID_1_" class="st0" d="M15.3,60.6c-0.6,0-1-0.5-1-1s0.5-1,1-1h41.3c0.6,0,1,0.5,1,1c0,0.6-0.5,1-1,1H15.3z"/>
<g id="XMLID_6_">
</g>
<g id="XMLID_7_">
</g>
<g id="XMLID_8_">
</g>
<g id="XMLID_9_">
</g>
<g id="XMLID_10_">
</g>
<g id="XMLID_11_">
</g>
</svg>
