<?xml version="1.0" encoding="utf-8"?>
<!-- Generator: Adobe Illustrator 19.0.1, SVG Export Plug-In . SVG Version: 6.00 Build 0)  -->
<svg version="1.1" id="Capa_1" xmlns="http://www.w3.org/2000/svg" xmlns:xlink="http://www.w3.org/1999/xlink" x="0px" y="0px"
	 viewBox="32 58.2 676.8 676.8" style="enable-background:new 32 58.2 676.8 676.8;" xml:space="preserve">
<style type="text/css">
	.st0{fill:#229DD1;}
</style>
<g>
	<g>
		<g>
			<g>
				<path class="st0" d="M643.1,492.1H97.8c-18.4,0-33.3-15-33.3-33.4V91.5c0-18.4,15-33.3,33.3-33.3h545.3
					c18.4,0,33.3,15,33.3,33.3v367.3C676.4,477.1,661.5,492.1,643.1,492.1z M98.6,457.9h543.6V92.4H98.6V457.9z"/>
				<path class="st0" d="M467.6,567.9H273.3c-9.5,0-17.1-7.7-17.1-17.1c0-9.4,7.7-17.1,17.1-17.1h194.3c9.5,0,17.1,7.7,17.1,17.1
					C484.7,560.2,477.1,567.9,467.6,567.9z"/>
			</g>
			<path class="st0" d="M366.7,735c-9.5,0-17.1-7.7-17.1-17.1v-99.5c0-9.5,7.7-17.1,17.1-17.1c9.5,0,17.1,7.7,17.1,17.1v99.5
				C383.8,727.3,376.1,735,366.7,735z"/>
			<path class="st0" d="M659.3,735H81.5c-9.5,0-17.1-7.7-17.1-17.1c0-9.5,7.7-17.1,17.1-17.1h577.8c9.5,0,17.1,7.7,17.1,17.1
				C676.4,727.3,668.8,735,659.3,735z"/>
		</g>
	</g>
</g>
</svg>
