<?xml version="1.0" encoding="utf-8"?>
<!-- Generator: Adobe Illustrator 19.0.0, SVG Export Plug-In . SVG Version: 6.00 Build 0)  -->
<svg version="1.1" id="Layer_1" xmlns="http://www.w3.org/2000/svg" xmlns:xlink="http://www.w3.org/1999/xlink" x="0px" y="0px"
	 viewBox="0 0 72 72" style="enable-background:new 0 0 72 72;" xml:space="preserve">
<style type="text/css">
	.st0{fill:#26A3D8;}
</style>
<g>
	<g id="_x34__4_">
		<g>
			<path class="st0" d="M59.5,57.4L47.2,45.2c3.2-3.5,5.2-8.2,5.2-13.3c0-11-9-19.9-20.2-19.9S12,20.9,12,31.9s9,19.9,20.2,19.9
				c4.8,0,9.2-1.7,12.7-4.4l12.4,12.2c0.6,0.6,1.6,0.6,2.2,0C60.2,59,60.2,58,59.5,57.4z M32.2,48.7c-9.4,0-17.1-7.5-17.1-16.8
				s7.7-16.8,17.1-16.8s17.1,7.5,17.1,16.8S41.6,48.7,32.2,48.7z"/>
		</g>
	</g>
</g>
<g id="XMLID_3_">
</g>
<g id="XMLID_4_">
</g>
<g id="XMLID_5_">
</g>
<g id="XMLID_6_">
</g>
<g id="XMLID_7_">
</g>
<g id="XMLID_8_">
</g>
</svg>
