<?xml version="1.0" encoding="utf-8"?>
<!-- Generator: Adobe Illustrator 19.0.1, SVG Export Plug-In . SVG Version: 6.00 Build 0)  -->
<svg version="1.1" id="Layer_1" xmlns="http://www.w3.org/2000/svg" xmlns:xlink="http://www.w3.org/1999/xlink" x="0px" y="0px"
	 viewBox="-258.9 371.1 51.8 51.8" style="enable-background:new -258.9 371.1 51.8 51.8;" xml:space="preserve">
<style type="text/css">
	.st0{fill:#269DD2;}
</style>
<g>
	<g>
		<path class="st0" d="M-211.2,388.8h-14.4l-4.4-13.5c-0.3-1.4-1.6-2.3-3-2.3s-2.7,1-3.1,2.3l-4.4,13.5h-14.3
			c-1.7,0-3.2,1.5-3.2,3.3c0,1,0.5,2,1.4,2.6c0.3,0.2,6.8,5,11.6,8.5c-1.8,5.6-4.3,13.2-4.4,13.5v0.1c-0.1,0.4-0.2,0.7-0.2,1.1
			c0,1.8,1.4,3.2,3.2,3.2c0.6,0,1.3-0.2,1.8-0.6l11.6-8.5c2.7,1.9,11.4,8.3,11.6,8.5c0.5,0.4,1.2,0.6,1.8,0.6c1.8,0,3.2-1.4,3.2-3.2
			c0-0.4-0.1-0.7-0.2-1.1c-0.1-0.4-2.6-8-4.4-13.5c4.8-3.5,11.3-8.2,11.6-8.5c0.9-0.6,1.4-1.6,1.4-2.6
			C-208,390.3-209.4,388.8-211.2,388.8z M-210.8,392.6c-0.3,0.2-10.4,7.6-12.4,9l-0.8,0.6l0.3,0.9c1.7,5.1,4.4,13.6,4.7,14.5l0,0
			c0,0.1,0,0.2,0,0.3c0,0.4-0.3,0.7-0.6,0.7c-0.1,0-0.3,0-0.4-0.1c-0.2-0.2-8.2-5.9-12.3-9l-0.7-0.7l-13.1,9.5
			c-0.1,0.1-0.2,0.1-0.4,0.1c-0.4,0-0.6-0.3-0.6-0.7c0,0,0-0.1,0.1-0.3l0,0c0.3-0.8,2.7-8.2,4.7-14.5l0.3-0.9l-0.7-0.5
			c-2-1.5-12.1-8.8-12.4-9c-0.2-0.1-0.3-0.3-0.3-0.5c0-0.4,0.3-0.7,0.6-0.7h16.2l5-15.3c0.1-0.2,0.3-0.5,0.6-0.5s0.5,0.2,0.6,0.5
			l5,15.3h16.2c0.3,0,0.6,0.3,0.6,0.7C-210.6,392.3-210.7,392.5-210.8,392.6z"/>
	</g>
</g>
<g id="XMLID_3_">
</g>
<g id="XMLID_4_">
</g>
<g id="XMLID_5_">
</g>
<g id="XMLID_6_">
</g>
<g id="XMLID_7_">
</g>
<g id="XMLID_8_">
</g>
</svg>
