<?xml version="1.0" encoding="utf-8"?>
<!-- Generator: Adobe Illustrator 19.0.0, SVG Export Plug-In . SVG Version: 6.00 Build 0)  -->
<svg version="1.1" id="Layer_1" xmlns="http://www.w3.org/2000/svg" xmlns:xlink="http://www.w3.org/1999/xlink" x="0px" y="0px"
	 viewBox="0 0 72 72" style="enable-background:new 0 0 72 72;" xml:space="preserve">
<style type="text/css">
	.st0{fill:#26A3D8;}
</style>
<path class="st0" d="M58.9,50l-7.4-7.4c-1.5-1.5-3.9-1.4-5.4,0.1l-3.7,3.7c-0.2-0.1-0.5-0.3-0.7-0.4c-2.3-1.3-5.6-3.1-9-6.5
	c-3.4-3.4-5.2-6.7-6.5-9c-0.1-0.2-0.3-0.5-0.4-0.7l2.5-2.5l1.3-1.3c1.5-1.5,1.6-4,0.1-5.4l-7.4-7.4c-1.5-1.5-3.9-1.4-5.4,0.1
	l-2.1,2.1l0.1,0.1c-1,1-1.5,2-1.9,3.1c-0.4,1.1-0.6,2.1-0.7,3.1c-1,8.2,2.8,15.6,12.8,25.6C38.9,61,50.1,60,50.7,60
	c1.1-0.1,2-0.4,3.1-0.7c1.1-0.4,2.1-1.1,3.1-1.7l0,0l2.1-2.1C60.3,53.9,60.4,51.5,58.9,50L58.9,50z M57.1,53.8l-1,1l-0.4,0.3
	c-0.6,0.5-1.6,1.4-3.1,1.9c-0.8,0.3-1.7,0.5-2.5,0.6c-0.1,0-10.6,1-23.8-12.2c-10.9-11-12.7-17.4-12-23.5c0.1-0.8,0.3-1.7,0.6-2.5
	c0.6-1.5,1.4-2.5,1.9-3.1l1.3-1.3c0.6-0.6,1.6-0.6,2.1-0.1l7.4,7.4c0.5,0.5,0.5,1.6-0.1,2.1l-5,5l0.4,0.7c0.2,0.4,0.5,1,0.8,1.5
	c1.4,2.4,3.3,5.9,6.9,9.5s7,5.5,9.5,6.9c0.5,0.3,1.1,0.5,1.5,0.8l0.7,0.4l5-5c0.6-0.6,1.6-0.6,2.1-0.1l7.4,7.4
	C57.9,52.2,57.8,53.2,57.1,53.8L57.1,53.8z"/>
<g>
</g>
<g>
</g>
<g>
</g>
<g>
</g>
<g>
</g>
<g>
</g>
</svg>
