<?xml version="1.0" encoding="utf-8"?>
<!-- Generator: Adobe Illustrator 19.0.0, SVG Export Plug-In . SVG Version: 6.00 Build 0)  -->
<svg version="1.1" id="Layer_1" xmlns="http://www.w3.org/2000/svg" xmlns:xlink="http://www.w3.org/1999/xlink" x="0px" y="0px"
	 viewBox="0 0 72 72" style="enable-background:new 0 0 72 72;" xml:space="preserve">
<style type="text/css">
	.st0{fill:#4BBEED;}
</style>
<g>
	<path class="st0" d="M59.9,49.2c-0.1-0.4-1-1-2.6-1.8c-0.4-0.3-1.1-0.6-1.8-1c-0.8-0.4-1.5-0.8-2.2-1.2c-0.6-0.4-1.3-0.7-1.8-1.1
		c-0.1-0.1-0.4-0.3-0.8-0.6s-0.9-0.6-1.2-0.7c-0.3-0.2-0.7-0.2-1-0.2c-0.5,0-1,0.3-1.7,1c-0.7,0.6-1.3,1.3-1.9,2.1
		c-0.6,0.8-1.2,1.5-1.8,2.1c-0.6,0.6-1.2,1-1.6,1c-0.2,0-0.5-0.1-0.8-0.2c-0.3-0.1-0.5-0.2-0.7-0.3c-0.2-0.1-0.4-0.2-0.8-0.5
		c-0.4-0.2-0.6-0.4-0.6-0.4c-3.1-1.7-5.8-3.7-8-5.9c-2.2-2.2-4.2-4.9-5.9-8c0,0-0.2-0.3-0.4-0.6c-0.2-0.4-0.4-0.7-0.5-0.8
		c-0.1-0.2-0.2-0.4-0.3-0.7s-0.2-0.6-0.2-0.8c0-0.4,0.3-0.9,1-1.6s1.3-1.2,2.1-1.8c0.8-0.6,1.5-1.2,2.1-1.9c0.6-0.7,1-1.3,1-1.7
		c0-0.3-0.1-0.6-0.2-1c-0.2-0.3-0.4-0.7-0.7-1.2c-0.3-0.5-0.5-0.8-0.6-0.8c-0.3-0.6-0.7-1.2-1.1-1.8c-0.4-0.6-0.8-1.4-1.2-2.2
		c-0.4-0.8-0.8-1.4-1-1.8c-0.8-1.6-1.4-2.5-1.8-2.6C22.7,12,22.4,12,22.1,12c-0.6,0-1.4,0.1-2.4,0.3c-1,0.2-1.8,0.5-2.3,0.7
		c-1.1,0.5-2.3,1.9-3.6,4.2c-1.2,2.1-1.7,4.3-1.7,6.3c0,0.6,0,1.2,0.1,1.8c0.1,0.6,0.2,1.2,0.4,2c0.2,0.7,0.4,1.3,0.5,1.6
		c0.1,0.3,0.4,1,0.7,1.9c0.3,0.9,0.5,1.5,0.6,1.7c0.8,2.2,1.7,4.2,2.8,6c1.8,2.9,4.2,5.9,7.3,9s6.1,5.6,9,7.3c1.8,1.1,3.7,2,6,2.8
		c0.2,0.1,0.8,0.3,1.7,0.6c0.9,0.3,1.5,0.6,1.9,0.7c0.3,0.1,0.9,0.3,1.6,0.5c0.7,0.2,1.4,0.3,2,0.4c0.6,0.1,1.2,0.1,1.8,0.1
		c2.1,0,4.2-0.6,6.3-1.7c2.3-1.3,3.7-2.5,4.2-3.6c0.3-0.6,0.5-1.3,0.7-2.3c0.2-1,0.3-1.8,0.3-2.4C60,49.6,60,49.3,59.9,49.2z"/>
</g>
<g>
</g>
<g>
</g>
<g>
</g>
<g>
</g>
<g>
</g>
<g>
</g>
</svg>
