<?xml version="1.0" encoding="utf-8"?>
<!-- Generator: Adobe Illustrator 19.0.0, SVG Export Plug-In . SVG Version: 6.00 Build 0)  -->
<svg version="1.1" id="Layer_1" xmlns="http://www.w3.org/2000/svg" xmlns:xlink="http://www.w3.org/1999/xlink" x="0px" y="0px"
	 viewBox="0 0 72 72" style="enable-background:new 0 0 72 72;" xml:space="preserve">
<style type="text/css">
	.st0{fill:#494849;}
</style>
<path id="XMLID_3_" class="st0" d="M60,21.3c-1.8,0.8-3.6,1.3-5.6,1.5c2.1-1.2,3.5-3.1,4.4-5.4c-1.9,1.1-4,1.9-6.3,2.3
	c-1.9-1.9-4.4-3.1-7.3-3.1c-5.5,0-9.8,4.4-9.8,9.8c0,0.8,0.1,1.5,0.2,2.3c-8.1-0.4-15.5-4.3-20.3-10.2c-0.9,1.5-1.3,3.1-1.3,4.9
	c0,3.4,1.8,6.4,4.4,8.1c-1.6-0.1-3.1-0.5-4.4-1.2v0.2c0,4.8,3.4,8.7,7.9,9.6c-0.8,0.2-1.8,0.3-2.6,0.3c-0.6,0-1.2-0.1-1.9-0.2
	c1.2,3.8,4.8,6.7,9.2,6.8c-3.4,2.6-7.7,4.2-12.3,4.2c-0.8,0-1.5,0-2.3-0.1c4.4,2.8,9.6,4.4,15.2,4.4c18,0,27.9-14.8,27.9-27.8
	c0-0.4,0-0.9,0-1.3C57,24.9,58.7,23.3,60,21.3z"/>
<g id="XMLID_8_">
</g>
<g>
</g>
<g>
</g>
<g>
</g>
<g>
</g>
<g>
</g>
<g>
</g>
</svg>
