<?xml version="1.0" encoding="utf-8"?>
<!-- Generator: Adobe Illustrator 19.0.1, SVG Export Plug-In . SVG Version: 6.00 Build 0)  -->
<svg version="1.1" id="Layer_1" xmlns="http://www.w3.org/2000/svg" xmlns:xlink="http://www.w3.org/1999/xlink" x="0px" y="0px"
	 viewBox="-258 372 50 50" style="enable-background:new -258 372 50 50;" xml:space="preserve">
<style type="text/css">
	.st0{fill:#269DD2;}
</style>
<path class="st0" d="M-233,421c-4,0-7.7-1.5-10.5-4.3c-2.8-2.8-4.3-6.5-4.3-10.5c0-3.2,1-6.3,3-8.9l0.1-0.1v-12.4
	c-0.1-6.5,5.2-11.8,11.7-11.8c6.3,0,11.5,5,11.7,11.3h-2.1c-0.3-5.1-4.5-9.2-9.7-9.2c-5.3,0-9.7,4.3-9.7,9.7V395l0.8-0.6
	c2.6-2,5.7-3,8.9-3c4,0,7.7,1.5,10.5,4.3c2.8,2.8,4.3,6.5,4.3,10.5s-1.5,7.7-4.3,10.5C-225.3,419.5-229,421-233,421z M-233,393.4
	c-7,0-12.7,5.7-12.7,12.7s5.7,12.8,12.7,12.8s12.7-5.7,12.7-12.7S-226,393.4-233,393.4z M-233,411.8c-0.6,0-1-0.5-1-1v-6.1
	c0-0.6,0.5-1,1-1c0.6,0,1,0.5,1,1v6.1C-232,411.4-232.4,411.8-233,411.8z"/>
</svg>
